<svg version="1.2" xmlns="http://www.w3.org/2000/svg" viewBox="0 0 664 215" width="664" height="215">
	<title>New Project</title>
	<style>
		.s0 { fill: #64e8f1 } 
	</style>
	<path id="&lt;Path&gt;" class="s0" d="m650.2 32.4q-0.8 7.4-1.7 14.8c0.2 2.3-2.4 1.2-1.8 4.1 1.4 4.1 6.1 5.5 11.3 6.6 0.2 1.5 1.1 2.6 2 3.5-0.5 3-0.5 5.4 0.2 7.3-1.2 1.7-1.6 4.5-1.8 7.5 2.8 0.6 2.9 3.3 4.9 4.4q-0.9 8.4-1.9 16.7c-1.7 2.2-2.8 5.1-2.9 9.4-2.3 0.4-2.3 3.6-4.8 3.8q-0.3 3.3-0.7 6.7c-0.3 1.2-1.6 1.2-2.6 1.6-0.4 2.3-1.3 3.9-2.9 4.5-0.3 2.1-0.7 4.1 1 4.5 0.4 2.2-1.8 1.1-1.8 2.7 0 7.4-3.2 10.8-3.8 17.4-1.4 1.1-3.2 1.8-4.7 2.9 2.6 0.7 4.4 2.1 7.5 2.3 0 2.5 2.3 3.1 2.9 5.1q-0.9 7.7-1.7 15.3c0.5 1.8-1.7 0.1-1.6 1.3-0.7 3.8-2.5 6.2-3 10.3-2.2-0.7-1.8 1.7-3.6 1.5-0.7 2.8-0.4 3.5-0.7 6.7-3.8 4.3-6.7 9.7-9.4 15.4-2.8 0.9-4.6 3.7-7.3 5-1.2 0.6-2.9 0.3-5 1.4-1.8-1.3-5.5-1.1-6.4-3.1-17.1-2.9-38.1-6.1-55.4-6.1-1 3.3-5.8 1.8-7.6 4q-2.7-0.3-5.3-0.5c-1.8 0.5-0.1-1.7-1.3-1.6-7.2-0.2-16.9-3.3-22.1-1-15.4-1.9-28.1-0.3-43.2-1.8-1.4-0.2-1.3 1.3-2.6 1.2-13.2-1.5-24 0.1-37-1.1-1.4-0.3-1.3 1.3-2.6 1.1-9.3-1.3-16.2 0.4-25.5-0.8-1.5-0.6-0.8 1.5-2 1.2-24-1.5-44.9 0.9-68.6-0.2-1.2 0.1-1.7 1.1-3 1.1-8.7-1.2-14.8 0.7-23.6-0.6-1.3-0.2-1.3 1.3-2.5 1.2-11.6-1.2-20.8 0.6-32.3-0.6-1.5-0.6-0.8 1.5-2.1 1.2-11.9-1.3-21.2 0.6-33.2-0.7-1.6-0.9-0.5 1.6-1.6 1.3-8.8-1.4-14.9 0.6-23.6-0.7-1.3-0.2-1.3 1.3-2.5 1.2-11.8-1.2-21 0.6-32.8-0.7-1.3-0.2-1.3 1.3-2.5 1.2-11.7-1.1-21 0.6-32.8-0.7-1.6-0.9-0.5 1.6-1.6 1.3-9-1.3-15.6 0.5-24.5-0.7-1.5-0.6-0.8 1.5-2.1 1.2-5.2-0.3-10.4-0.9-15.4-0.7-0.9 0-1.5 0.7-2.5 0.7-1.9 0-4.2-0.8-6.2-0.7-0.6 0.1-1.8 0.7-2.4 0.7-2.2 0-4.5-0.9-6.7-0.7-0.8 0.1-1.7 1.1-2.6 1.2-4.7 0.2-10.2-1-15.3-0.7-2.7 0.1-8.5 0.7-13-0.5-2.3-5.9-9.2-8-12.1-13.4-4.7 0.6-10.2 0.5-13.9-0.5-0.1-2.1-2.8-2.2-2.4-4.6-5.8-2.5-8.4-7.6-12.3-11.5 0.4-3-2.2-3.5-1.2-6.9-2.3-2.1-2-6.2-4.9-7.8-0.7-4.2-1.8-8.2-4.1-11 0.5-4.7-1.4-8.8-0.6-13.1 0.5-2.5 2.5-4.2 2.7-7 1.6-0.1 2.5-1.2 3.2-2.5 4.2-1.6 9.6-1.8 15.2-1.8 1.2-0.9 2.4-1.3 5.5-1.8 3-0.5 5.3-0.5 9.6 0.1 2-0.6 3.6-1.6 6.9-0.7-0.2-1.8-0.1-3.7-2-4.1 0.5-2-0.2-3.1-1.6-3.5 0.9-2.2-1.4-1.8-0.5-3.9-1.1-1.5-1.8-2.9-2.9-4.7-0.4-0.6 0.2-1-0.3-1.5-0.8-0.8-0.3-0.4-0.7-2-0.1-0.4-0.8-2.3-1.6-3.1 0.3-4.9-1.2-12.5 1.8-16.7-1.2-2.7-3.6-4.4-3.5-8.1-0.8-0.5-0.6-1.8-2.2-1.7 0.6-3.2-1.8-4.1-1.2-7.3 0-0.7-1.4-0.3-1.3-1.1-0.2-5.8-2-11.3 0.8-16.4 0.2-0.2 0.8 0.2 1-0.3 1-2.5 2.5-3.4 4-5.4q6.1 0.3 10.3-1.8c0.4-1.9-1.6-1.9-2-3.1 0.5-2.7-1.8-3.2-1.3-5.9-0.9-0.5-1.2-1.4-2.3-1.7 0.3-2.7-1.5-3.7-1.2-6.4-3-1.4-0.8-6.9-2.4-9.5 0-5.8 2.2-8.9 3.4-13.1 2-0.1 3-1.4 4.1-2.5 2.1 0.4 4.1 0.7 4.5-0.9 6.3 0.8 10.4-1.1 16-1.2 1.5 0.6 1.2-1.1 2.1-1.2 8.7 1.6 13.9-1.2 22.6 0.5 1.7 0.9 0.5-1.6 1.6-1.3 27.2 1.9 50.8-0.7 78.1 1.3 1.5 0.6 0.8-1.5 2.1-1.2 10.6 1.4 18.8-0.1 29.3 1.2 1.5 0.6 0.8-1.5 2.1-1.2 14.2 1.5 26.1 0 40.3 1.5 1.4 0.2 1.3-1.3 2.6-1.2 14.4 1.5 26.5 0.1 40.9 1.6 2 0.7 1.7-1.5 3.5-1.1 11 1.4 19.6-0.1 30.7 1.4 1.4 0.2 1.3-1.3 2.5-1.2 15.4 1.6 28.3 0.2 43.8 1.9 1.6 0.9 0.4-1.6 1.6-1.3 15.9 1.8 29.2 0.2 45.1 2 1.5 0.6 0.9-1.5 2.1-1.2 12.4 1.7 22.2 0.1 34.6 1.8 1.3 0.2 1.2-1.3 2.5-1.2 18.6 1.9 34.9 0.8 53.8 3 1.5 0.6 0.8-1.5 2-1.2 40.4 3.1 86 5.2 125.1 13.5 1.6 1.5 3.7 2.5 5.3 4 1.7-0.3 0.6 1.6 0.7 2.5 6 1 10.1 3.5 12.8 7.2z"/>
</svg>