<svg version="1.2" xmlns="http://www.w3.org/2000/svg" viewBox="0 0 441 300" width="441" height="300">
	<title>New Project</title>
	<style>
		.s0 { fill: #a5a5a5;stroke: #a5a5a5;stroke-miterlimit:100;stroke-width: 3 } 
		.s1 { fill: #f4c771 } 
		.s2 { fill: #826734 } 
		.s3 { fill: #64e8f1 } 
	</style>
	<g id="metal">
		<path id="Shape 2" class="s0" d="m43.5 45h-5v-42.6h5zm-1.5-37v-5h78.5v5zm73.7-1.7l3.6-3.5 120.4 120.4-3.5 3.5zm120.2 120.8v-5h78.5v5z"/>
	</g>
	<path id="wood" class="s1" d="m310 118c0-2.8 2.2-5 5-5h121c2.8 0 5 2.2 5 5v12c0 2.8-2.2 5-5 5h-121c-2.8 0-5-2.2-5-5z"/>
	<path id="Shape 5" class="s2" d="m320 118c0-1.1 0.9-2 2-2h74c1.1 0 2 0.9 2 2 0 1.1-0.9 2-2 2h-74c-1.1 0-2-0.9-2-2z"/>
	<path id="head" class="s3" d="m0 62c0-11 9-20 20-20h40c11 0 20 9 20 20v218c0 11-9 20-20 20h-40c-11 0-20-9-20-20z"/>
</svg>